<mxfile host="app.diagrams.net" modified="2023-11-12T18:10:47.950Z" agent="Mozilla/5.0 (Windows NT 10.0; Win64; x64) AppleWebKit/537.36 (KHTML, like Gecko) Chrome/119.0.0.0 Safari/537.36" etag="53JPShTyArA1FmA_v4jW" version="22.1.0" type="github">
  <diagram name="第 1 页" id="pjlDlT33COawuCyDlycB">
    <mxGraphModel dx="1050" dy="585" grid="1" gridSize="10" guides="1" tooltips="1" connect="1" arrows="1" fold="1" page="1" pageScale="1" pageWidth="827" pageHeight="1169" math="0" shadow="0">
      <root>
        <mxCell id="0" />
        <mxCell id="1" parent="0" />
        <mxCell id="vsrivt2W_YZwYbB3FV5f-8" style="rounded=0;orthogonalLoop=1;jettySize=auto;html=1;exitX=0;exitY=1;exitDx=0;exitDy=0;entryX=1;entryY=0;entryDx=0;entryDy=0;" edge="1" parent="1" source="vsrivt2W_YZwYbB3FV5f-1" target="vsrivt2W_YZwYbB3FV5f-2">
          <mxGeometry relative="1" as="geometry" />
        </mxCell>
        <mxCell id="vsrivt2W_YZwYbB3FV5f-9" style="edgeStyle=orthogonalEdgeStyle;rounded=0;orthogonalLoop=1;jettySize=auto;html=1;exitX=0.5;exitY=1;exitDx=0;exitDy=0;entryX=0.5;entryY=0;entryDx=0;entryDy=0;" edge="1" parent="1" source="vsrivt2W_YZwYbB3FV5f-1" target="vsrivt2W_YZwYbB3FV5f-3">
          <mxGeometry relative="1" as="geometry" />
        </mxCell>
        <mxCell id="vsrivt2W_YZwYbB3FV5f-10" style="rounded=0;orthogonalLoop=1;jettySize=auto;html=1;exitX=1;exitY=1;exitDx=0;exitDy=0;entryX=0;entryY=0;entryDx=0;entryDy=0;" edge="1" parent="1" source="vsrivt2W_YZwYbB3FV5f-1" target="vsrivt2W_YZwYbB3FV5f-4">
          <mxGeometry relative="1" as="geometry" />
        </mxCell>
        <mxCell id="vsrivt2W_YZwYbB3FV5f-1" value="" style="ellipse;whiteSpace=wrap;html=1;aspect=fixed;" vertex="1" parent="1">
          <mxGeometry x="200" y="240" width="20" height="20" as="geometry" />
        </mxCell>
        <mxCell id="vsrivt2W_YZwYbB3FV5f-7" style="edgeStyle=orthogonalEdgeStyle;rounded=0;orthogonalLoop=1;jettySize=auto;html=1;exitX=0.5;exitY=1;exitDx=0;exitDy=0;entryX=0.5;entryY=0;entryDx=0;entryDy=0;" edge="1" parent="1" source="vsrivt2W_YZwYbB3FV5f-2" target="vsrivt2W_YZwYbB3FV5f-5">
          <mxGeometry relative="1" as="geometry" />
        </mxCell>
        <mxCell id="vsrivt2W_YZwYbB3FV5f-2" value="" style="ellipse;whiteSpace=wrap;html=1;aspect=fixed;" vertex="1" parent="1">
          <mxGeometry x="160" y="270" width="20" height="20" as="geometry" />
        </mxCell>
        <mxCell id="vsrivt2W_YZwYbB3FV5f-11" style="edgeStyle=orthogonalEdgeStyle;rounded=0;orthogonalLoop=1;jettySize=auto;html=1;exitX=0.5;exitY=1;exitDx=0;exitDy=0;entryX=0.5;entryY=0;entryDx=0;entryDy=0;" edge="1" parent="1" source="vsrivt2W_YZwYbB3FV5f-3" target="vsrivt2W_YZwYbB3FV5f-6">
          <mxGeometry relative="1" as="geometry" />
        </mxCell>
        <mxCell id="vsrivt2W_YZwYbB3FV5f-3" value="" style="ellipse;whiteSpace=wrap;html=1;aspect=fixed;" vertex="1" parent="1">
          <mxGeometry x="200" y="280" width="20" height="20" as="geometry" />
        </mxCell>
        <mxCell id="vsrivt2W_YZwYbB3FV5f-4" value="" style="ellipse;whiteSpace=wrap;html=1;aspect=fixed;" vertex="1" parent="1">
          <mxGeometry x="240" y="270" width="20" height="20" as="geometry" />
        </mxCell>
        <mxCell id="vsrivt2W_YZwYbB3FV5f-5" value="" style="ellipse;whiteSpace=wrap;html=1;aspect=fixed;" vertex="1" parent="1">
          <mxGeometry x="160" y="314" width="20" height="20" as="geometry" />
        </mxCell>
        <mxCell id="vsrivt2W_YZwYbB3FV5f-6" value="" style="ellipse;whiteSpace=wrap;html=1;aspect=fixed;" vertex="1" parent="1">
          <mxGeometry x="200" y="320" width="20" height="20" as="geometry" />
        </mxCell>
      </root>
    </mxGraphModel>
  </diagram>
</mxfile>
